<svg width="316" height="291" viewBox="0 0 316 291" fill="none" xmlns="http://www.w3.org/2000/svg">
<g opacity="0.5" filter="url(#filter0_f_4729_46624)">
<ellipse cx="158.001" cy="230.296" rx="109.665" ry="12.3464" fill="#285064"/>
</g>
<path d="M179.289 0.798828V233.201H122.678V0.798828H179.289Z" fill="url(#paint0_linear_4729_46624)"/>
<g filter="url(#filter1_b_4729_46624)">
<path d="M122.414 118.575C122.414 94.5094 141.923 75 165.989 75C190.056 75 209.565 94.5094 209.565 118.575C209.565 142.641 190.056 162.151 165.989 162.151C141.923 162.151 122.414 142.641 122.414 118.575Z" fill="#285064" fill-opacity="0.8"/>
<path fill-rule="evenodd" clip-rule="evenodd" d="M143.847 124.399C141.682 121.13 140.539 117.318 140.539 113.375C140.539 102.379 149.443 93.435 160.39 93.435C165.283 93.435 169.982 95.2383 173.624 98.5118L174.775 97.2201C170.817 93.6613 165.707 91.7012 160.39 91.7012C148.492 91.7012 138.812 101.424 138.812 113.375C138.812 117.661 140.056 121.806 142.409 125.359L143.847 124.399ZM174.127 117.145L172.759 120.456C172.572 120.91 172.058 121.123 171.611 120.938L170.054 120.291C169.343 119.996 168.316 120.204 167.776 120.747C167.184 121.343 166.982 122.366 167.275 123.082L167.921 124.642C168.107 125.093 167.904 125.606 167.444 125.797L164.148 127.173C163.699 127.36 163.185 127.145 163 126.695L162.355 125.129C162.058 124.415 161.181 123.834 160.422 123.834C159.583 123.834 158.718 124.413 158.42 125.131L157.776 126.698C157.591 127.149 157.086 127.367 156.627 127.176L153.33 125.807C152.881 125.616 152.666 125.101 152.852 124.653L153.496 123.092C153.789 122.376 153.582 121.345 153.04 120.804C152.448 120.208 151.43 120.003 150.717 120.302L149.16 120.948C148.712 121.135 148.202 120.931 148.013 120.468L146.649 117.15C146.463 116.699 146.677 116.179 147.125 115.994L148.684 115.346C149.395 115.047 149.973 114.172 149.973 113.409C149.973 112.568 149.397 111.703 148.682 111.405L147.125 110.755C146.677 110.57 146.459 110.062 146.649 109.601L148.018 106.29C148.204 105.836 148.718 105.621 149.165 105.804L150.719 106.451C151.432 106.746 152.459 106.538 152.997 105.993C153.591 105.399 153.794 104.376 153.498 103.66L152.855 102.1C152.669 101.649 152.873 101.136 153.332 100.946L156.628 99.5761C157.077 99.3889 157.591 99.6039 157.776 100.055L158.421 101.62C158.718 102.334 159.595 102.915 160.354 102.915C161.193 102.915 162.058 102.336 162.357 101.618L163 100.051C163.185 99.6004 163.691 99.382 164.15 99.5727L167.446 100.942C167.895 101.133 168.111 101.648 167.924 102.097L167.286 103.648C166.989 104.371 167.196 105.406 167.734 105.947C168.328 106.543 169.343 106.749 170.07 106.446L171.616 105.804C172.065 105.614 172.574 105.822 172.764 106.283L174.127 109.601C174.314 110.051 174.1 110.572 173.651 110.757L172.092 111.405C171.381 111.703 170.803 112.579 170.803 113.342C170.803 114.182 171.38 115.047 172.094 115.346L173.654 115.992C174.103 116.178 174.32 116.685 174.131 117.147L174.127 117.145ZM160.389 106.439C156.575 106.439 153.485 109.542 153.485 113.373C153.485 117.204 156.575 120.307 160.389 120.307C164.203 120.307 167.293 117.204 167.293 113.373C167.293 111.535 166.568 109.771 165.27 108.471C163.975 107.17 162.218 106.439 160.389 106.439ZM160.389 116.84C158.482 116.84 156.937 115.288 156.937 113.373C156.937 111.457 158.482 109.906 160.389 109.906C162.296 109.906 163.841 111.457 163.841 113.373C163.841 114.292 163.478 115.176 162.829 115.824C162.184 116.476 161.304 116.84 160.389 116.84ZM160.39 133.314C157.181 133.314 154.12 132.57 151.292 131.101L150.5 132.641C153.532 134.215 156.952 135.047 160.39 135.047C163.188 135.047 165.91 134.517 168.481 133.472L167.834 131.864C165.47 132.825 162.965 133.314 160.39 133.314ZM181.968 113.375C181.968 115.488 181.665 117.578 181.068 119.585L179.415 119.089C179.964 117.243 180.241 115.32 180.241 113.375C180.241 111.095 179.861 108.858 179.112 106.728L180.74 106.15C181.554 108.467 181.968 110.898 181.968 113.375ZM181.104 101.671C181.104 103.586 179.558 105.139 177.652 105.139C175.745 105.139 174.199 103.586 174.199 101.671C174.199 99.7557 175.745 98.2032 177.652 98.2032C179.558 98.2032 181.104 99.7557 181.104 101.671ZM146.58 132.447C148.487 132.447 150.033 130.895 150.033 128.979C150.033 127.064 148.487 125.512 146.58 125.512C144.674 125.512 143.128 127.064 143.128 128.979C143.128 130.895 144.674 132.447 146.58 132.447ZM183.23 123.073L191.861 126.595C192.662 126.921 193.188 127.691 193.188 128.545C193.188 138.289 187.078 143.718 183.226 145.289C182.695 145.505 182.098 145.505 181.567 145.289C176.757 143.326 171.61 137.285 171.61 128.545C171.61 127.691 172.136 126.921 172.941 126.595L181.572 123.073C181.835 122.966 182.116 122.911 182.401 122.911C182.686 122.911 182.968 122.966 183.23 123.073ZM181.468 139.724L189.74 131.623C190.023 131.35 190.023 130.905 189.74 130.628L188.724 129.633C188.445 129.36 187.986 129.36 187.708 129.633L180.96 136.242L177.809 133.155C177.53 132.882 177.072 132.882 176.793 133.155L175.777 134.15C175.499 134.423 175.499 134.872 175.777 135.145L180.452 139.724C180.731 139.997 181.19 139.997 181.468 139.724Z" fill="#F0F6F7"/>
</g>
<defs>
<filter id="filter0_f_4729_46624" x="0.335938" y="169.949" width="315.33" height="120.693" filterUnits="userSpaceOnUse" color-interpolation-filters="sRGB">
<feFlood flood-opacity="0" result="BackgroundImageFix"/>
<feBlend mode="normal" in="SourceGraphic" in2="BackgroundImageFix" result="shape"/>
<feGaussianBlur stdDeviation="24" result="effect1_foregroundBlur_4729_46624"/>
</filter>
<filter id="filter1_b_4729_46624" x="106.414" y="59" width="119.151" height="119.15" filterUnits="userSpaceOnUse" color-interpolation-filters="sRGB">
<feFlood flood-opacity="0" result="BackgroundImageFix"/>
<feGaussianBlur in="BackgroundImageFix" stdDeviation="8"/>
<feComposite in2="SourceAlpha" operator="in" result="effect1_backgroundBlur_4729_46624"/>
<feBlend mode="normal" in="SourceGraphic" in2="effect1_backgroundBlur_4729_46624" result="shape"/>
</filter>
<linearGradient id="paint0_linear_4729_46624" x1="150.983" y1="-28.9487" x2="150.983" y2="292.928" gradientUnits="userSpaceOnUse">
<stop stop-color="#2A607B"/>
<stop offset="1" stop-color="#2A607B" stop-opacity="0.39"/>
</linearGradient>
</defs>
</svg>
