<svg width="317" height="291" viewBox="0 0 317 291" fill="none" xmlns="http://www.w3.org/2000/svg">
<g opacity="0.5" filter="url(#filter0_f_4729_46631)">
<ellipse cx="158.464" cy="230.298" rx="109.665" ry="12.3464" fill="#0074A2"/>
</g>
<path d="M212.448 233.203L182.804 197.686C174.572 199.74 166.118 200.773 157.634 200.762C139.362 200.762 122.582 196.474 107.294 187.897C92.1876 179.499 79.6272 167.179 70.9378 152.238C61.9884 137.044 57.5137 119.845 57.5137 100.642C57.5137 81.6245 61.9884 64.5182 70.9378 49.323C79.6272 34.3817 92.1875 22.0622 107.294 13.6637C122.582 5.08714 139.362 0.798828 157.634 0.798828C176.092 0.798828 192.919 5.08714 208.114 13.6637C223.14 22.0731 235.607 34.3959 244.191 49.323C253.047 64.5182 257.475 81.6245 257.475 100.642C257.475 117.981 253.792 133.783 246.428 148.045C239.392 161.928 229.07 173.88 216.361 182.863L261.113 233.203H212.448ZM97.7854 100.642C97.7854 113.693 100.303 125.159 105.338 135.041C110.374 144.922 117.412 152.52 126.453 157.834C135.495 163.148 145.889 165.804 157.635 165.804C169.381 165.804 179.729 163.148 188.679 157.834C197.627 152.52 204.618 144.923 209.652 135.04C214.687 125.158 217.204 113.691 217.205 100.641C217.205 87.5902 214.688 76.1705 209.652 66.382C204.617 56.5935 197.625 49.0889 188.677 43.8681C179.728 38.6477 169.38 36.0376 157.634 36.0376C145.888 36.0376 135.494 38.6477 126.451 43.8681C117.359 49.1412 110.017 56.9702 105.337 66.382C100.303 76.171 97.7854 87.5909 97.7854 100.642Z" fill="url(#paint0_linear_4729_46631)"/>
<g filter="url(#filter1_b_4729_46631)">
<path d="M35 118.575C35 94.5094 54.5094 75 78.5754 75C102.641 75 122.151 94.5094 122.151 118.575C122.151 142.641 102.641 162.151 78.5754 162.151C54.5094 162.151 35 142.641 35 118.575Z" fill="#0074A2" fill-opacity="0.8"/>
<path d="M99.3064 108.193C98.4022 107.354 98.0793 106.062 98.5314 104.899L98.9835 103.866C99.6939 102.252 98.7897 100.443 97.1105 99.9266L96.0772 99.6682C94.8501 99.3453 94.0105 98.2474 93.946 97.0203L93.8814 95.8578C93.8168 94.1141 92.2022 92.8224 90.523 93.1453L89.4251 93.3391C88.198 93.5328 86.971 92.9516 86.3897 91.8537L85.873 90.8203C85.0335 89.2703 83.0314 88.8182 81.6105 89.8516L80.7064 90.4974C79.6085 91.2724 78.2522 91.2724 77.2835 90.4974L76.3793 89.8516C74.9585 88.8182 72.9564 89.2703 72.1168 90.8203L71.6001 91.7891C71.0189 92.887 69.7918 93.4682 68.5647 93.2745L67.4668 93.0807C65.723 92.7578 64.173 94.0495 64.0439 95.7932L63.9793 96.9557C63.9147 98.1828 63.0751 99.2807 61.848 99.6037L60.7501 99.9266C59.071 100.379 58.1668 102.252 58.8772 103.866L59.3293 104.899C59.7814 106.062 59.523 107.354 58.5543 108.193L57.7147 108.968C56.423 110.131 56.423 112.133 57.7147 113.295L58.5543 114.07C59.4585 114.91 59.7814 116.202 59.3293 117.364L58.8772 118.397C58.1668 120.012 59.071 121.82 60.7501 122.337L61.848 122.66C63.0751 122.983 63.9147 124.081 63.9793 125.308L64.0439 126.47C64.1085 128.214 65.723 129.506 67.4022 129.183L68.5001 128.989C69.7272 128.795 70.9543 129.377 71.5355 130.474L72.0522 131.508C72.8918 133.058 74.8939 133.51 76.3147 132.477L77.2189 131.831C78.2522 131.12 79.6085 131.12 80.5772 131.831L81.4814 132.477C82.9022 133.51 84.9043 133.058 85.7439 131.508L86.2605 130.539C86.8418 129.441 88.0689 128.86 89.296 129.054L90.3939 129.247C92.1376 129.57 93.6876 128.279 93.8168 126.535L93.8814 125.372C93.946 124.145 94.7855 123.047 96.0126 122.724L97.1105 122.402C98.7897 121.949 99.6939 120.077 98.9835 118.462L98.5314 117.429C98.0793 116.266 98.3376 114.974 99.3064 114.135L100.146 113.36C101.438 112.197 101.438 110.195 100.146 109.033L99.3064 108.193ZM78.898 124.274C71.6001 124.274 65.6585 118.333 65.6585 111.035C65.6585 103.737 71.6001 97.7953 78.898 97.7953C86.196 97.7953 92.1376 103.737 92.1376 111.035C92.1376 118.397 86.196 124.274 78.898 124.274ZM68.9522 140.808L66.2397 143.068L67.0793 146.491C67.2085 147.137 66.5626 147.654 65.9814 147.331L62.946 145.522L59.9105 147.395C59.3293 147.718 58.6189 147.202 58.8126 146.556L59.6522 143.133L56.9397 140.872C56.423 140.42 56.6814 139.581 57.3918 139.581L60.9439 139.322L62.3001 136.029C62.5585 135.383 63.398 135.383 63.6564 136.029L65.0126 139.322L68.5647 139.581C69.2105 139.581 69.4689 140.42 68.9522 140.808ZM84.9043 140.808L82.1918 143.068L83.0314 146.491C83.1605 147.137 82.5147 147.654 81.9335 147.331L78.898 145.522L75.8626 147.395C75.2814 147.718 74.571 147.202 74.7647 146.556L75.6043 143.133L72.8918 140.872C72.3751 140.42 72.6335 139.581 73.3439 139.581L76.896 139.322L78.2522 136.029C78.5105 135.383 79.3501 135.383 79.6085 136.029L80.9647 139.322L84.5168 139.581C85.098 139.581 85.421 140.42 84.9043 140.808ZM100.792 140.808L98.0793 143.068L98.9189 146.491C99.048 147.137 98.4022 147.654 97.821 147.331L94.8501 145.522L91.8147 147.395C91.2335 147.718 90.523 147.202 90.7168 146.556L91.5564 143.133L88.8439 140.872C88.3272 140.42 88.5855 139.581 89.296 139.581L92.848 139.322L94.2043 136.029C94.4626 135.383 95.3022 135.383 95.5606 136.029L96.9168 139.322L100.469 139.581C101.05 139.581 101.308 140.42 100.792 140.808Z" fill="#DCF1F5"/>
</g>
<defs>
<filter id="filter0_f_4729_46631" x="0.798828" y="169.951" width="315.33" height="120.693" filterUnits="userSpaceOnUse" color-interpolation-filters="sRGB">
<feFlood flood-opacity="0" result="BackgroundImageFix"/>
<feBlend mode="normal" in="SourceGraphic" in2="BackgroundImageFix" result="shape"/>
<feGaussianBlur stdDeviation="24" result="effect1_foregroundBlur_4729_46631"/>
</filter>
<filter id="filter1_b_4729_46631" x="19" y="59" width="119.151" height="119.15" filterUnits="userSpaceOnUse" color-interpolation-filters="sRGB">
<feFlood flood-opacity="0" result="BackgroundImageFix"/>
<feGaussianBlur in="BackgroundImageFix" stdDeviation="8"/>
<feComposite in2="SourceAlpha" operator="in" result="effect1_backgroundBlur_4729_46631"/>
<feBlend mode="normal" in="SourceGraphic" in2="effect1_backgroundBlur_4729_46631" result="shape"/>
</filter>
<linearGradient id="paint0_linear_4729_46631" x1="159.313" y1="-12.6806" x2="159.313" y2="317.334" gradientUnits="userSpaceOnUse">
<stop stop-color="#157FAE"/>
<stop offset="1" stop-color="#157FAE" stop-opacity="0.243"/>
</linearGradient>
</defs>
</svg>
