<svg width="316" height="291" viewBox="0 0 316 291" fill="none" xmlns="http://www.w3.org/2000/svg">
<g opacity="0.5" filter="url(#filter0_f_4729_46638)">
<ellipse cx="157.737" cy="230.296" rx="109.665" ry="12.3464" fill="#11AAB4"/>
</g>
<path d="M208.969 233.201L157.695 142.637H135.719V233.201H89.1055V0.798828H176.34C194.32 0.798828 209.635 3.96193 222.287 10.2881C234.939 16.6143 244.429 25.1599 250.756 35.925C257.083 46.6905 260.246 58.7323 260.246 72.0504C260.382 86.942 255.711 101.48 246.926 113.505C238.047 125.823 224.84 134.313 207.305 138.975L262.908 233.201H208.969ZM135.719 107.677H174.675C187.327 107.677 196.76 104.625 202.975 98.5211C209.19 92.4171 212.298 83.9277 212.299 73.0527C212.299 62.398 209.191 54.1296 202.976 48.2474C196.761 42.3652 187.327 39.4241 174.675 39.4241H135.719V107.677Z" fill="url(#paint0_linear_4729_46638)"/>
<g filter="url(#filter1_b_4729_46638)">
<path d="M67.3184 118.575C67.3184 94.5094 86.8277 75 110.894 75C134.96 75 154.469 94.5094 154.469 118.575C154.469 142.641 134.96 162.151 110.894 162.151C86.8277 162.151 67.3184 142.641 67.3184 118.575Z" fill="#3CAAB4" fill-opacity="0.8"/>
<path fill-rule="evenodd" clip-rule="evenodd" d="M120.562 106.956C120.568 106.959 120.575 106.963 120.58 106.968L134.028 120.619C134.644 121.246 134.984 122.077 134.984 122.962C134.984 123.847 134.645 124.678 134.028 125.304C132.795 126.558 130.646 126.557 129.413 125.304L115.936 111.623C115.43 111.11 114.611 111.11 114.105 111.623C113.599 112.137 113.599 112.969 114.105 113.482L127.588 127.169C128.203 127.793 128.542 128.624 128.542 129.506C128.542 130.388 128.203 131.218 127.588 131.842C126.323 133.126 124.263 133.128 122.993 131.848C122.989 131.844 122.987 131.84 122.983 131.836L109.502 118.15C108.996 117.637 108.176 117.637 107.67 118.15C107.416 118.408 107.291 118.746 107.292 119.083C107.292 119.42 107.418 119.756 107.671 120.013L121.154 133.701L121.158 133.705C122.414 135.001 122.413 137.089 121.145 138.375C120.812 138.718 120.41 138.966 119.959 139.128C119.696 137.931 119.04 136.696 117.98 135.637C116.71 134.368 115.145 133.637 113.662 133.587C113.59 132.137 112.89 130.552 111.578 129.241C110.308 127.972 108.743 127.242 107.259 127.192C107.187 125.742 106.487 124.156 105.175 122.845C103.903 121.576 102.338 120.846 100.854 120.796L100.852 120.768C100.841 120.522 100.829 120.276 100.777 120.021C100.52 118.754 99.808 117.485 98.7596 116.438C97.4431 115.123 95.8104 114.369 94.2795 114.369C93.2115 114.369 92.2909 114.738 91.6162 115.434L86.3846 120.831L85.6344 120.07C78.823 113.155 78.644 102.076 85.2335 95.3741C88.354 92.2056 92.5406 90.4609 97.0213 90.4609C101.728 90.4609 106.181 92.3507 109.556 95.7759L109.869 96.0968L102.581 103.506C101.845 104.253 101.463 105.284 101.535 106.334C101.606 107.382 102.121 108.346 102.947 108.98C105.446 110.902 108.97 111.147 111.768 109.5L118.879 105.253L120.543 106.943C120.548 106.948 120.555 106.952 120.562 106.956ZM137.131 96.4258C133.946 93.1803 129.7 91.3945 125.174 91.3945C120.651 91.3945 116.401 93.1816 113.204 96.4258L104.412 105.365C104.129 105.651 104.106 105.981 104.118 106.153C104.13 106.323 104.195 106.642 104.51 106.884C106.192 108.178 108.563 108.345 110.461 107.229L120.799 101.055C121.415 100.687 122.209 100.893 122.573 101.52C122.936 102.145 122.731 102.95 122.115 103.32L121.184 103.877L122.344 105.055C122.347 105.058 122.351 105.06 122.354 105.062C122.357 105.064 122.36 105.065 122.362 105.067C122.369 105.07 122.376 105.074 122.382 105.08L135.858 118.76C136.417 119.327 136.846 119.988 137.136 120.708C140.326 117.466 142.084 113.156 142.084 108.569C142.084 103.981 140.325 99.6674 137.131 96.4258ZM96.9561 118.325C97.62 118.988 98.0886 119.8 98.2409 120.551C98.2953 120.818 98.3832 121.478 98.031 121.841L91.623 128.453C91.3998 128.682 91.0558 128.731 90.8061 128.731C89.9746 128.731 88.954 128.228 88.1301 127.405C87.4655 126.741 86.9969 125.93 86.8445 125.178C86.7902 124.912 86.7023 124.252 87.0545 123.889L93.4631 117.277C93.6863 117.047 94.0303 116.998 94.2801 116.998C95.1116 116.998 96.1328 117.502 96.9561 118.325ZM100.694 123.406C101.525 123.406 102.546 123.909 103.357 124.72C104.662 126.023 105 127.65 104.433 128.237L98.0247 134.848C97.8008 135.079 97.4562 135.126 97.2071 135.126C96.3755 135.126 95.355 134.623 94.5437 133.813C93.8791 133.149 93.4106 132.338 93.2582 131.585C93.2038 131.32 93.1159 130.66 93.4681 130.296L99.8761 123.685C100.099 123.455 100.444 123.406 100.694 123.406ZM109.76 131.115C108.949 130.305 107.929 129.802 107.097 129.802C106.847 129.802 106.503 129.849 106.279 130.08L99.8709 136.691C99.3031 137.278 99.642 138.905 100.946 140.208C101.758 141.019 102.779 141.522 103.61 141.522C103.86 141.522 104.204 141.473 104.427 141.243L110.835 134.632C111.403 134.046 111.064 132.417 109.76 131.115ZM112.683 136.475C112.906 136.246 113.25 136.197 113.5 136.197C114.332 136.197 115.353 136.7 116.176 137.523C117.48 138.825 117.82 140.454 117.252 141.039L110.844 147.651C110.62 147.881 110.276 147.93 110.027 147.93C109.195 147.93 108.174 147.426 107.35 146.603C106.686 145.94 106.218 145.128 106.065 144.377C106.011 144.11 105.923 143.45 106.275 143.087L112.683 136.475Z" fill="#E6F6F7"/>
</g>
<defs>
<filter id="filter0_f_4729_46638" x="0.0722656" y="169.949" width="315.33" height="120.693" filterUnits="userSpaceOnUse" color-interpolation-filters="sRGB">
<feFlood flood-opacity="0" result="BackgroundImageFix"/>
<feBlend mode="normal" in="SourceGraphic" in2="BackgroundImageFix" result="shape"/>
<feGaussianBlur stdDeviation="24" result="effect1_foregroundBlur_4729_46638"/>
</filter>
<filter id="filter1_b_4729_46638" x="51.3184" y="59" width="119.151" height="119.15" filterUnits="userSpaceOnUse" color-interpolation-filters="sRGB">
<feFlood flood-opacity="0" result="BackgroundImageFix"/>
<feGaussianBlur in="BackgroundImageFix" stdDeviation="8"/>
<feComposite in2="SourceAlpha" operator="in" result="effect1_backgroundBlur_4729_46638"/>
<feBlend mode="normal" in="SourceGraphic" in2="effect1_backgroundBlur_4729_46638" result="shape"/>
</filter>
<linearGradient id="paint0_linear_4729_46638" x1="176.007" y1="-44.5196" x2="176.007" y2="274.336" gradientUnits="userSpaceOnUse">
<stop stop-color="#4DB6BE"/>
<stop offset="1" stop-color="#67CBD7" stop-opacity="0.212"/>
</linearGradient>
</defs>
</svg>
