<?xml version="1.0" encoding="UTF-8"?>
<!DOCTYPE svg PUBLIC "-//W3C//DTD SVG 1.1//EN" "http://www.w3.org/Graphics/SVG/1.1/DTD/svg11.dtd">
<svg xmlns="http://www.w3.org/2000/svg" version="1.1" width="225px" height="225px" style="shape-rendering:geometricPrecision; text-rendering:geometricPrecision; image-rendering:optimizeQuality; fill-rule:evenodd; clip-rule:evenodd" xmlns:xlink="http://www.w3.org/1999/xlink">
<g><path style="opacity:1" fill="#d976be" d="M 187.5,33.5 C 187.5,33.8333 187.5,34.1667 187.5,34.5C 135.166,34.3333 82.8323,34.5 30.5,35C 27.846,35.9406 25.1794,36.7739 22.5,37.5C 24.3854,35.6885 26.7187,34.5218 29.5,34C 82.1656,33.5 134.832,33.3333 187.5,33.5 Z"/></g>
<g><path style="opacity:1" fill="#cf1aa2" d="M 187.5,34.5 C 192.678,34.7123 197.678,35.7123 202.5,37.5C 203.035,39.4456 204.368,40.4456 206.5,40.5C 207.5,40.8333 208.167,41.5 208.5,42.5C 209.08,44.7488 210.413,46.4154 212.5,47.5C 212.66,49.153 213.326,50.4863 214.5,51.5C 214.802,54.3725 215.469,57.0392 216.5,59.5C 217.664,93.3309 217.831,127.331 217,161.5C 216.721,164.457 215.887,167.123 214.5,169.5C 212.241,170.344 211.241,172.011 211.5,174.5C 206.944,181.128 200.611,185.294 192.5,187C 138.833,187.667 85.1667,187.667 31.5,187C 19.415,183.915 11.5817,176.415 8,164.5C 7.33333,128.833 7.33333,93.1667 8,57.5C 8.61141,52.2768 10.7781,47.9435 14.5,44.5C 16.5,43.1667 18.1667,41.5 19.5,39.5C 21.0269,39.573 22.0269,38.9063 22.5,37.5C 25.1794,36.7739 27.846,35.9406 30.5,35C 82.8323,34.5 135.166,34.3333 187.5,34.5 Z"/></g>
<g><path style="opacity:0.945" fill="#eaadda" d="M 187.5,34.5 C 187.5,34.1667 187.5,33.8333 187.5,33.5C 193.194,32.6724 198.194,34.0057 202.5,37.5C 197.678,35.7123 192.678,34.7123 187.5,34.5 Z"/></g>
<g><path style="opacity:0.953" fill="#e6a9d5" d="M 22.5,37.5 C 22.0269,38.9063 21.0269,39.573 19.5,39.5C 19.9731,38.0937 20.9731,37.427 22.5,37.5 Z"/></g>
<g><path style="opacity:0.992" fill="#e99cd6" d="M 202.5,37.5 C 204.23,38.0256 205.564,39.0256 206.5,40.5C 204.368,40.4456 203.035,39.4456 202.5,37.5 Z"/></g>
<g><path style="opacity:0.976" fill="#e8afd9" d="M 19.5,39.5 C 18.1667,41.5 16.5,43.1667 14.5,44.5C 15.1667,41.8333 16.8333,40.1667 19.5,39.5 Z"/></g>
<g><path style="opacity:0.992" fill="#e79fdb" d="M 208.5,42.5 C 210.587,43.5846 211.92,45.2512 212.5,47.5C 210.413,46.4154 209.08,44.7488 208.5,42.5 Z"/></g>
<g><path style="opacity:0.388" fill="#f4caed" d="M 212.5,47.5 C 214.104,48.287 214.771,49.6203 214.5,51.5C 213.326,50.4863 212.66,49.153 212.5,47.5 Z"/></g>
<g><path style="opacity:0.729" fill="#efbee9" d="M 214.5,51.5 C 216.223,53.78 216.889,56.4467 216.5,59.5C 215.469,57.0392 214.802,54.3725 214.5,51.5 Z"/></g>
<g><path style="opacity:1" fill="#fefdfe" d="M 110.5,61.5 C 113.365,61.0548 115.865,61.7215 118,63.5C 118.667,75.1667 118.667,86.8333 118,98.5C 115.253,101.034 112.587,101.034 110,98.5C 109.188,86.0911 109.355,73.7577 110.5,61.5 Z"/></g>
<g><path style="opacity:1" fill="#fcf7fc" d="M 161.5,61.5 C 163.857,61.3367 166.19,61.5034 168.5,62C 171.375,66.9172 174.375,71.7505 177.5,76.5C 180.625,71.7505 183.625,66.9172 186.5,62C 189.347,61.0561 191.847,61.5561 194,63.5C 194.667,64.5 194.667,65.5 194,66.5C 190.333,72.1667 186.667,77.8333 183,83.5C 182.667,88.1667 182.333,92.8333 182,97.5C 178.818,101.424 175.818,101.424 173,97.5C 172.667,92.8333 172.333,88.1667 172,83.5C 167.516,77.3632 163.683,70.8632 160.5,64C 160.743,63.0979 161.077,62.2646 161.5,61.5 Z"/></g>
<g><path style="opacity:1" fill="#fcf8fc" d="M 35.5,61.5 C 42.9059,61.152 50.2392,61.652 57.5,63C 61.24,64.2899 64.4067,66.4565 67,69.5C 69.2742,77.315 68.9409,84.9817 66,92.5C 63.2217,95.8071 59.7217,97.9738 55.5,99C 48.2529,99.8123 41.0862,99.6456 34,98.5C 32.3781,87.2642 32.0448,75.9308 33,64.5C 34.045,63.6266 34.8783,62.6266 35.5,61.5 Z"/></g>
<g><path style="opacity:1" fill="#fcf5fa" d="M 126.5,61.5 C 135.994,60.8952 145.328,61.7286 154.5,64C 159.303,68.5844 159.803,73.7511 156,79.5C 152.981,81.1068 153.148,82.7734 156.5,84.5C 158.048,89.3418 158.381,94.1751 157.5,99C 154.165,101.291 151.332,100.791 149,97.5C 148.667,94.1667 148.333,90.8333 148,87.5C 147.5,87 147,86.5 146.5,86C 142.179,85.501 137.846,85.3343 133.5,85.5C 133.665,89.1817 133.499,92.8484 133,96.5C 131.727,100.102 129.227,101.268 125.5,100C 124.874,99.2496 124.374,98.4162 124,97.5C 123.333,86.5 123.333,75.5 124,64.5C 125.045,63.6266 125.878,62.6266 126.5,61.5 Z"/></g>
<g><path style="opacity:1" fill="#cc0d9f" d="M 133.5,68.5 C 138.547,68.3375 143.547,68.6708 148.5,69.5C 148.813,72.2469 148.48,74.9135 147.5,77.5C 142.9,78.4435 138.233,78.7768 133.5,78.5C 133.5,75.1667 133.5,71.8333 133.5,68.5 Z"/></g>
<g><path style="opacity:1" fill="#cd19a1" d="M 42.5,68.5 C 57.458,66.9525 62.6246,73.2858 58,87.5C 57.5348,88.9308 56.7014,90.0975 55.5,91C 51.3004,92.3674 46.9671,92.8674 42.5,92.5C 42.5,84.5 42.5,76.5 42.5,68.5 Z"/></g>
<g><path style="opacity:1" fill="#fc1698" d="M 87.5,90.5 C 94.9381,89.7749 98.7714,93.1082 99,100.5C 99.8624,98.913 100.529,97.2464 101,95.5C 105.019,97.3672 106.852,100.534 106.5,105C 106.358,108.015 105.858,110.849 105,113.5C 107.753,110.744 109.253,107.411 109.5,103.5C 115.332,105.181 116.832,108.848 114,114.5C 111.667,116.5 109.333,118.5 107,120.5C 103.531,127.423 104.031,127.923 108.5,122C 110.667,120.5 112.833,119 115,117.5C 116.009,115.975 116.509,114.308 116.5,112.5C 119.292,112.452 121.125,113.785 122,116.5C 122.498,119.482 122.665,122.482 122.5,125.5C 118.484,126.837 115.818,129.504 114.5,133.5C 112.229,134.363 109.895,134.363 107.5,133.5C 107.682,135.675 108.349,137.675 109.5,139.5C 108.514,143.147 106.181,144.314 102.5,143C 101.139,141.416 100.472,139.582 100.5,137.5C 98.8212,137.285 97.8212,137.952 97.5,139.5C 96.2918,140.782 94.9584,140.782 93.5,139.5C 91.7711,137.149 91.1044,134.482 91.5,131.5C 90.1779,131.67 89.0113,131.337 88,130.5C 86.7475,127.986 86.2475,125.32 86.5,122.5C 88.9855,119.166 91.3188,115.666 93.5,112C 93.4519,110.967 93.1186,110.634 92.5,111C 91.5069,114.193 89.5069,116.359 86.5,117.5C 85.3527,117.182 84.5194,116.516 84,115.5C 83.3333,113.5 83.3333,111.5 84,109.5C 86.3967,105.377 88.2301,101.044 89.5,96.5C 89.2814,94.3069 88.6148,92.3069 87.5,90.5 Z"/></g>
<g><path style="opacity:1" fill="#f6d9ee" d="M 87.5,90.5 C 88.6148,92.3069 89.2814,94.3069 89.5,96.5C 88.2301,101.044 86.3967,105.377 84,109.5C 83.3333,111.5 83.3333,113.5 84,115.5C 84.5194,116.516 85.3527,117.182 86.5,117.5C 89.5069,116.359 91.5069,114.193 92.5,111C 93.1186,110.634 93.4519,110.967 93.5,112C 91.3188,115.666 88.9855,119.166 86.5,122.5C 86.5,121.833 86.1667,121.5 85.5,121.5C 85.5,120.5 85.5,119.5 85.5,118.5C 82.4653,117.822 80.7986,115.822 80.5,112.5C 82.8182,107.193 85.1515,101.86 87.5,96.5C 87.3767,95.0755 87.0434,93.7421 86.5,92.5C 86.3284,91.5084 86.6618,90.8417 87.5,90.5 Z"/></g>
<g><path style="opacity:1" fill="#fdfafc" d="M 126.5,160.5 C 123.645,161.117 120.978,162.117 118.5,163.5C 101.42,166.628 89.4198,160.295 82.5,144.5C 78.8387,152.506 72.8387,158.006 64.5,161C 54.2267,162.566 43.8934,162.899 33.5,162C 32.6667,161.167 31.8333,160.333 31,159.5C 30.3333,143.5 30.3333,127.5 31,111.5C 31.8333,110.667 32.6667,109.833 33.5,109C 43.1667,108.333 52.8333,108.333 62.5,109C 72.0848,111.583 78.9181,117.416 83,126.5C 83.3661,124.548 84.1995,122.882 85.5,121.5C 86.1667,121.5 86.5,121.833 86.5,122.5C 86.2475,125.32 86.7475,127.986 88,130.5C 89.0113,131.337 90.1779,131.67 91.5,131.5C 91.1044,134.482 91.7711,137.149 93.5,139.5C 94.9584,140.782 96.2918,140.782 97.5,139.5C 99.6411,142.472 102.308,144.972 105.5,147C 116.16,149.498 121.826,145.331 122.5,134.5C 123.5,134.5 124.5,134.5 125.5,134.5C 125.834,131.509 124.834,129.176 122.5,127.5C 122.5,126.833 122.5,126.167 122.5,125.5C 122.665,122.482 122.498,119.482 122,116.5C 121.125,113.785 119.292,112.452 116.5,112.5C 116.509,114.308 116.009,115.975 115,117.5C 112.833,119 110.667,120.5 108.5,122C 104.031,127.923 103.531,127.423 107,120.5C 109.333,118.5 111.667,116.5 114,114.5C 116.832,108.848 115.332,105.181 109.5,103.5C 109.253,107.411 107.753,110.744 105,113.5C 105.858,110.849 106.358,108.015 106.5,105C 106.852,100.534 105.019,97.3672 101,95.5C 100.529,97.2464 99.8624,98.913 99,100.5C 98.7714,93.1082 94.9381,89.7749 87.5,90.5C 86.6618,90.8417 86.3284,91.5084 86.5,92.5C 80.9087,90.2323 78.0754,92.2323 78,98.5C 70.8348,102.531 68.1681,100.531 70,92.5C 73.9485,82.1772 78.4485,72.0105 83.5,62C 86.5,61.3333 89.5,61.3333 92.5,62C 97.907,73.8777 102.74,86.0444 107,98.5C 111.016,101.017 114.683,104.017 118,107.5C 126.844,110.512 133.344,116.179 137.5,124.5C 138.327,120.541 138.827,116.541 139,112.5C 142.05,108.87 145.883,107.703 150.5,109C 159.316,117.081 167.816,125.581 176,134.5C 176.066,126.729 176.733,119.062 178,111.5C 182.667,107.5 187.333,107.5 192,111.5C 193.136,119.401 193.636,127.401 193.5,135.5C 193.333,142.833 193.167,150.167 193,157.5C 189.534,162.442 185.034,163.609 179.5,161C 171.652,152.985 163.652,145.152 155.5,137.5C 154.669,144.142 154.169,150.809 154,157.5C 151.565,162.224 147.731,163.724 142.5,162C 141.333,160.833 140.167,159.667 139,158.5C 138.827,154.459 138.327,150.459 137.5,146.5C 134.77,151.991 131.103,156.658 126.5,160.5 Z"/></g>
<g><path style="opacity:1" fill="#ce2ba4" d="M 87.5,71.5 C 89.9351,75.7994 91.6018,80.466 92.5,85.5C 89.1667,85.5 85.8333,85.5 82.5,85.5C 84.12,80.857 85.7867,76.1903 87.5,71.5 Z"/></g>
<g><path style="opacity:1" fill="#ce12a1" d="M 57.5,124.5 C 66.1189,126.483 68.9523,131.817 66,140.5C 61.4769,146.008 55.6436,148.008 48.5,146.5C 48.5,139.167 48.5,131.833 48.5,124.5C 51.5,124.5 54.5,124.5 57.5,124.5 Z"/></g>
<g><path style="opacity:1" fill="#db7bc3" d="M 57.5,124.5 C 54.5,124.5 51.5,124.5 48.5,124.5C 48.5,131.833 48.5,139.167 48.5,146.5C 47.508,139.018 47.1746,131.352 47.5,123.5C 51.0419,123.187 54.3752,123.521 57.5,124.5 Z"/></g>
<g><path style="opacity:1" fill="#f53d96" d="M 122.5,127.5 C 124.834,129.176 125.834,131.509 125.5,134.5C 124.5,134.5 123.5,134.5 122.5,134.5C 122.5,132.167 122.5,129.833 122.5,127.5 Z"/></g>
<g><path style="opacity:1" fill="#f9a459" d="M 122.5,125.5 C 122.5,126.167 122.5,126.833 122.5,127.5C 122.5,129.833 122.5,132.167 122.5,134.5C 121.826,145.331 116.16,149.498 105.5,147C 102.308,144.972 99.6411,142.472 97.5,139.5C 97.8212,137.952 98.8212,137.285 100.5,137.5C 100.472,139.582 101.139,141.416 102.5,143C 106.181,144.314 108.514,143.147 109.5,139.5C 108.349,137.675 107.682,135.675 107.5,133.5C 109.895,134.363 112.229,134.363 114.5,133.5C 115.818,129.504 118.484,126.837 122.5,125.5 Z"/></g>
<g><path style="opacity:1" fill="#f9a562" d="M 126.5,160.5 C 128.114,165.963 128.947,171.63 129,177.5C 125.668,172.673 122.168,168.007 118.5,163.5C 120.978,162.117 123.645,161.117 126.5,160.5 Z"/></g>
<g><path style="opacity:1" fill="#e397c8" d="M 214.5,169.5 C 214.25,171.674 213.25,173.341 211.5,174.5C 211.241,172.011 212.241,170.344 214.5,169.5 Z"/></g>
</svg>
